<?xml version="1.0" encoding="utf-8"?>
<svg viewBox="819.300048828125 36.899993896484375 196.0999755859375 201.19998168945312" width="196.0999755859375" height="201.19998168945312" xmlns="http://www.w3.org/2000/svg"><g transform="matrix(1, 0, 0, 1, 0, 0)"><path class="st37" d="M1015.4,193.4c-62.3-44.7-124.6,44.7-186.8,0c0-37.3,0-74.6,0-111.8c62.3,44.7,124.6-44.7,186.8,0&#10;&#9;&#9;&#9;&#9;c-7,4.3-14.1,10.2-21.1,17.5c7,11.3,14.1,24,21.1,38.4c-7,4.3-14.1,10.2-21.1,17.5C1001.3,166.3,1008.3,179,1015.4,193.4z" style="fill: rgb(204, 204, 204); opacity: 1;" transform="matrix(1, 0, 0, 1, 0, 0)"/><path class="st38" d="M879.1,205.5V93.7c-16.9,2.2-33.7,0-50.6-12.1c0,37.3,0,74.6,0,111.8C845.4,205.5,862.2,207.8,879.1,205.5z&#10;&#9;&#9;&#9;&#9;" style="fill: rgb(204, 204, 204); opacity: 1;" transform="matrix(1, 0, 0, 1, 0, 0)"/><path class="st39" d="M819.3,223.3h9.2V81.7c0-2.5-2.1-4.6-4.6-4.6l0,0c-2.5,0-4.6,2.1-4.6,4.6V223.3z" style="fill: rgb(204, 204, 204); opacity: 1;" transform="matrix(1, 0, 0, 1, 0, 0)"/></g></svg>