<?xml version="1.0" encoding="utf-8"?>
<svg width="0px" viewBox="154.779 26.819 233.351 463.22" xmlns="http://www.w3.org/2000/svg">
  <g id="_x31_" transform="matrix(0, -1.010444, 1.007408, 0, -1.96273, -367.301666)" style="transform-origin: 274.2px 628.045px;">
    <g/>
    <g/>
    <g/>
    <g/>
    <g/>
    <g/>
    <g/>
    <g/>
    <g/>
    <g/>
    <g/>
    <g/>
    <g/>
    <g>
      <path d="M431.7,536.5v10c0,3-2.1,5.5-4.8,5.5h-57.6c-2.6,0-4.8-2.4-4.8-5.5v-10c0-3,2.1-5.5,4.8-5.5h57.6 C429.6,531,431.7,533.5,431.7,536.5z"/>
    </g>
    <g>
      <path d="M164.3,541.5v10c0,3-2.1,5.5-4.8,5.5h-57.6c-2.6,0-4.8-2.4-4.8-5.5v-10c0-3,2.1-5.5,4.8-5.5h57.6 C162.1,536,164.3,538.4,164.3,541.5z"/>
    </g>
    <g/>
    <g/>
    <g>
      <path d="M431.7,719.9v-10c0-3-2.1-5.5-4.8-5.5h-57.6c-2.6,0-4.8,2.4-4.8,5.5v10c0,3,2.1,5.5,4.8,5.5h57.6 C429.6,725.3,431.7,722.9,431.7,719.9z"/>
    </g>
    <g>
      <path d="M164.3,714.9v-10c0-3-2.1-5.5-4.8-5.5h-57.6c-2.6,0-4.8,2.4-4.8,5.5v10c0,3,2.1,5.5,4.8,5.5h57.6 C162.1,720.4,164.3,717.9,164.3,714.9z"/>
    </g>
    <g>
      <path d="M355.1,736l8.6-18c0,0,81.4,0,90.1,0s40.5-20.3,40.5-33.1c0-15.8,0-48.9,0-56.1c0,0,0-0.5,0-1.4c0-7.1,0-40.2,0-56.1 c0-12.8-31.8-33.1-40.5-33.1s-90.1,0-90.1,0l-8.6-18c0,0-9.6-2.5-8.1,0c1.5,2.5,7.1,22.5,7.1,22.5s-217.7,1.7-254.1,0 c-36.4-1.7-45.9,37.2-45.9,44.6c0,6.5,0,33.5,0,39.9c0,0.9,0,1.4,0,1.4c0,6.4,0,33.4,0,39.9c0,7.4,9.5,46.3,45.9,44.6 c36.4-1.7,254.1,0,254.1,0s-5.5,20-7.1,22.5C345.5,738.5,355.1,736,355.1,736z"/>
    </g>
    <g>
      <path class="st0" d="M258.3,694.4c-9.3-16.7-8.2-57.5-7.9-65.6h0.1c0,0,0-0.3,0-0.7c0-0.4,0-0.7,0-0.7h-0.1 c-0.3-8-1.4-48.9,7.9-65.6c3.3-10.7,1.2-14.1-33.5-11.6c-34.7,2.5-127.5,2.8-127.5,2.8s-19.6,2.1-25.4,20.9 c-3,6.5-4.6,45.5-4.9,53.4H67c0,0,0,0.3,0,0.7c0,0.4,0,0.7,0,0.7H67c0.3,7.8,1.9,46.9,4.9,53.4c5.8,18.8,25.4,20.9,25.4,20.9 s92.8,0.3,127.5,2.8C259.6,708.5,261.6,705.2,258.3,694.4z" style="fill: rgb(255, 255, 255);"/>
    </g>
    <g/>
    <g/>
    <g/>
    <g/>
    <g/>
    <g/>
    <g/>
    <g/>
    <g/>
    <g/>
    <g/>
    <g/>
    <g/>
    <g/>
    <g/>
    <g/>
    <g/>
    <g/>
    <g/>
    <g/>
    <g/>
    <g/>
    <g/>
    <g/>
    <g/>
    <g/>
    <g/>
    <g/>
    <g/>
    <g/>
    <g/>
    <g/>
    <g/>
    <g/>
    <g/>
    <g/>
    <g/>
    <g/>
    <g>
      <path class="st0" d="M354.1,546.5h-83.8l9.5,13.4c0,0,49.1,0,53.7,0C338.1,559.9,354.1,546.5,354.1,546.5z" style="fill: rgb(255, 255, 255);"/>
    </g>
    <g>
      <path class="st0" d="M492.6,565.8c-5-9.3-20.2-20.1-30.6-24.9l1.7,11.1l24.8,28.1C488.5,580.1,491.5,575.3,492.6,565.8z" style="fill: rgb(255, 255, 255);"/>
    </g>
    <g>
      <path class="st0" d="M322.1,583h-35c-2,0-3.5-1.8-3.2-3.8l2.1-12.2c0.3-1.5,1.6-2.7,3.2-2.7h32.9c1.8,0,3.2,1.4,3.2,3.2v12.2 C325.3,581.6,323.8,583,322.1,583z" style="fill: rgb(255, 255, 255);"/>
    </g>
    <g>
      <path class="st0" d="M393.4,583c0,0,2.1,3.7,1.7,9.3l89.7-4.6c0,0-4.5-7.1-10.5-7.5C468.3,579.7,393.4,583,393.4,583z" style="fill: rgb(255, 255, 255);"/>
    </g>
    <g>
      <path class="st0" d="M354.1,709.9h-83.8l9.5-13.4c0,0,49.1,0,53.7,0C338.1,696.5,354.1,709.9,354.1,709.9z" style="fill: rgb(255, 255, 255);"/>
    </g>
    <g>
      <path class="st0" d="M376.9,700.6c13.6-30.2,14.8-64.5,14.9-71.8h0c0,0,0-0.3,0-0.7c0-0.4,0-0.7,0-0.7h0 c-0.1-7.2-1.3-41.6-14.9-71.8l-45,9.9l2,62.5l-2,62.5L376.9,700.6z" style="fill: rgb(206, 10, 134);"/>
    </g>
    <g>
      <path class="st0" d="M492.6,690.6c-5,9.3-20.2,20.1-30.6,24.9l1.7-11.1l24.8-28.1C488.5,676.3,491.5,681.1,492.6,690.6z" style="fill: rgb(255, 255, 255);"/>
    </g>
    <g>
      <path class="st0" d="M278.3,689.5c-5.8-13.8-6.4-55.5-6.5-61.3c0.1-5.8,0.7-47.5,6.5-61.3c1.5-1.2-9.9-5.7-13.6-7 c-3.7-1.3-9.5,46.9-8.4,68.3c-1.1,21.4,4.7,69.6,8.4,68.3C268.3,695.2,279.8,690.7,278.3,689.5z" style="fill: rgb(255, 255, 255);"/>
    </g>
    <g>
      <path d="M236,627.9c0.2-6,1.4-38.1,5.6-56.3c1.3-5.8-3.3-11.3-9.3-11c-37.7,2.1-138.2,7.7-140.5,8.3c-2.9,0.8-7.2,32.9-6.9,59.2 c-0.2,26.3,4.1,58.4,6.9,59.2c2.4,0.7,102.9,6.3,140.5,8.3c6,0.3,10.6-5.1,9.3-11c-4.1-18.2-5.4-50.3-5.6-56.3 C236,628.3,236,628.1,236,627.9z"/>
    </g>
    <g>
      <path class="st0" d="M322.1,673.4h-35c-2,0-3.5,1.8-3.2,3.8l2.1,12.2c0.3,1.5,1.6,2.7,3.2,2.7h32.9c1.8,0,3.2-1.4,3.2-3.2v-12.2 C325.3,674.8,323.8,673.4,322.1,673.4z" style="fill: rgb(255, 255, 255);"/>
    </g>
    <g>
      <path class="st0" d="M494.3,628.9c0,0,0-0.5,0-1.4c0-4.9,0-22.6,0-38.2l-5.8,1.2v37v1.4v37l5.8,1.2 C494.3,651.5,494.3,633.8,494.3,628.9z" style="fill: rgb(255, 255, 255);"/>
    </g>
    <g>
      <path class="st0" d="M393.4,673.4c0,0,2.1-3.7,1.7-9.3l89.7,4.6c0,0-4.5,7.1-10.5,7.5C468.3,676.7,393.4,673.4,393.4,673.4z" style="fill: rgb(255, 255, 255);"/>
    </g>
    <g>
      <path class="st0" d="M220.1,585.1v4.3c0,0.8-0.7,1.5-1.5,1.5H112.5c-0.8,0-1.5-0.7-1.5-1.5v-4.3c0-0.8,0.7-1.5,1.5-1.5h106.2 C219.5,583.6,220.1,584.3,220.1,585.1z" style="fill: rgb(255, 255, 255);"/>
    </g>
    <g>
      <path class="st0" d="M220.1,611.6v4.3c0,0.8-0.7,1.5-1.5,1.5H112.5c-0.8,0-1.5-0.7-1.5-1.5v-4.3c0-0.8,0.7-1.5,1.5-1.5h106.2 C219.5,610.1,220.1,610.7,220.1,611.6z" style="fill: rgb(255, 255, 255);"/>
    </g>
    <g>
      <path class="st0" d="M220.1,640.5v4.3c0,0.8-0.7,1.5-1.5,1.5H112.5c-0.8,0-1.5-0.7-1.5-1.5v-4.3c0-0.8,0.7-1.5,1.5-1.5h106.2 C219.5,639,220.1,639.7,220.1,640.5z" style="fill: rgb(255, 255, 255);"/>
    </g>
    <g>
      <path class="st0" d="M220.1,666.9v4.3c0,0.8-0.7,1.5-1.5,1.5H112.5c-0.8,0-1.5-0.7-1.5-1.5v-4.3c0-0.8,0.7-1.5,1.5-1.5h106.2 C219.5,665.5,220.1,666.1,220.1,666.9z" style="fill: rgb(255, 255, 255);"/>
    </g>
    <g/>
    <g/>
    <g/>
    <g/>
    <g/>
    <g/>
    <g/>
    <g/>
    <g/>
    <g/>
    <g/>
    <g/>
    <g/>
    <g/>
    <g/>
    <g/>
    <g/>
    <g/>
    <g/>
    <g/>
    <g/>
    <g/>
    <g/>
    <g/>
    <g/>
    <g/>
    <g/>
    <g/>
    <g/>
    <g/>
    <g/>
    <g/>
    <g/>
    <g/>
    <g/>
    <g/>
    <g/>
    <g/>
    <g/>
    <g/>
    <g/>
  </g>
  <g id="Designed_by_Vecteezy" transform="matrix(1, 0, 0, 1.007408, -206.812317, -131.176468)" style="">
    <g class="st2" style="opacity: 0.26;">
      <g style="">
        <g/>
        <g/>
        <g/>
        <g/>
        <g/>
        <g/>
        <g/>
        <g/>
      </g>
      <g/>
    </g>
  </g>
</svg>